<svg width="1024" height="1024" viewBox="0 0 1024 1024" fill="none" xmlns="http://www.w3.org/2000/svg">
<rect width="1024" height="1024" rx="512" fill="url(#paint0_linear_1748_286)"/>
<path d="M546 813.585C437.82 745.743 314.543 801.673 269.687 846.396C246.925 876.785 261.066 939.581 306.933 934.735C366.975 928.391 434.914 813.585 546 813.585Z" fill="white" fill-opacity="0.35" stroke="url(#paint1_linear_1748_286)" stroke-width="20" stroke-linecap="round"/>
<path d="M678.216 545.832C678.216 355.366 335.65 326.223 335.635 545.832C335.629 647.506 251.184 886.192 265.672 845.204C313.118 805.825 435.032 743.943 543.113 811.45C651.195 878.957 778.203 870.989 757.829 845.204C685.442 753.589 678.216 635.45 678.216 545.832Z" fill="white"/>
<path d="M335.418 313.247C307.123 267.603 324.083 171.529 395.896 177.52C433.227 73.3358 565.156 49.6688 613.319 175.59V179.168C659.747 171.328 725.403 231.548 676.906 313.247V373.328L678.457 534.824C667.946 366.024 355.831 325.157 336.071 532.5L335.418 385.344V313.247Z" fill="white"/>
<path d="M395.896 177.52C324.083 171.529 307.123 267.603 335.418 313.247V385.344M395.896 177.52C395.922 177.522 395.948 177.524 395.974 177.527M395.896 177.52C390.818 191.691 387.491 207.352 386.362 224.329M395.896 177.52C433.227 73.3358 565.156 49.6688 613.319 175.59V179.168M335.418 385.344C392.016 313.247 573.138 296.426 676.906 373.328M335.418 385.344L336.071 532.5C355.831 325.157 667.946 366.024 678.457 534.824L676.906 373.328M676.906 373.328V313.247C725.403 231.548 659.747 171.328 613.319 179.168M588.239 193.088C595.005 185.288 603.754 180.784 613.319 179.168M335.635 545.832C335.65 326.223 678.216 355.366 678.216 545.832C678.216 635.45 685.442 753.589 757.829 845.204C778.203 870.989 651.195 878.957 543.113 811.45C435.032 743.943 313.118 805.825 265.672 845.204C251.184 886.192 335.629 647.506 335.635 545.832Z" stroke="url(#paint2_linear_1748_286)" stroke-width="20" stroke-linecap="round"/>
<path d="M468 588C468 619.45 534.733 625.741 545 588" stroke="#F5499A" stroke-width="20" stroke-linecap="round"/>
<path d="M436 522C436 534.703 446.297 545 459 545C471.703 545 482 534.703 482 522C482 509.297 471.703 499 459 499C446.297 499 436 509.297 436 522Z" fill="#F5499A"/>
<path d="M532 522C532 534.703 542.297 545 555 545C567.703 545 578 534.703 578 522C578 509.297 567.703 499 555 499C542.297 499 532 509.297 532 522Z" fill="#F5499A"/>
<defs>
<linearGradient id="paint0_linear_1748_286" x1="512" y1="0" x2="512" y2="1024" gradientUnits="userSpaceOnUse">
<stop stop-color="#EE1C78"/>
<stop offset="1" stop-color="#FA76BA"/>
</linearGradient>
<linearGradient id="paint1_linear_1748_286" x1="402.5" y1="782" x2="403.074" y2="1128.84" gradientUnits="userSpaceOnUse">
<stop stop-color="#F862AB"/>
<stop offset="1" stop-color="#FA76BA"/>
</linearGradient>
<linearGradient id="paint2_linear_1748_286" x1="502.349" y1="-51.9599" x2="498.905" y2="1133.72" gradientUnits="userSpaceOnUse">
<stop stop-color="#EE1C78"/>
<stop offset="1" stop-color="#FA76BA"/>
</linearGradient>
</defs>
</svg>
