<svg width="124" height="42" viewBox="0 0 124 42" fill="none" xmlns="http://www.w3.org/2000/svg">
<path d="M32.4616 22.16C32.6016 22.1133 32.8116 22.09 33.0916 22.09C33.885 22.09 34.2816 22.6033 34.2816 23.63C34.2816 24.19 34.1533 24.6683 33.8966 25.065C33.6633 25.4383 33.29 25.6717 32.7766 25.765C30.6533 26.1617 28.565 26.605 26.5116 27.095L26.4066 27.935C25.7533 32.5317 24.4466 35.9267 22.4866 38.12C20.55 40.3367 18.1233 41.445 15.2066 41.445C13.27 41.445 11.765 40.9667 10.6916 40.01C9.64164 39.0767 9.11664 37.875 9.11664 36.405C9.11664 33.955 10.2133 31.7733 12.4066 29.86C14.6 27.9467 17.925 26.255 22.3816 24.785L23.0816 19.85C23.175 19.29 23.2916 18.5433 23.4316 17.61C22.335 20.5033 20.935 22.6617 19.2316 24.085C17.5283 25.5083 15.6266 26.22 13.5266 26.22C11.52 26.22 9.99164 25.6133 8.94164 24.4C7.89164 23.1633 7.36664 21.5767 7.36664 19.64C7.36664 18.7767 7.45997 17.8317 7.64664 16.805C7.83331 15.755 8.12497 14.3433 8.52164 12.57C8.87164 10.96 9.12831 9.67667 9.29164 8.72C9.47831 7.76333 9.57164 6.91166 9.57164 6.165C9.57164 5.045 9.13997 4.485 8.27664 4.485C7.59997 4.485 6.79497 4.82333 5.86164 5.5C4.95164 6.15333 3.98331 7.16833 2.95664 8.545C2.62997 8.98833 2.26831 9.21 1.87164 9.21C1.54497 9.21 1.25331 9.05833 0.996641 8.755C0.763307 8.42833 0.646641 8.06667 0.646641 7.67C0.646641 6.94667 0.973307 6.13 1.62664 5.22C4.00664 1.95333 6.79497 0.319998 9.99164 0.319998C11.415 0.319998 12.5233 0.751665 13.3166 1.615C14.1333 2.47833 14.5416 3.75 14.5416 5.43C14.5416 6.64333 14.425 7.89167 14.1916 9.175C13.9816 10.435 13.655 12.045 13.2116 14.005C12.9316 15.1717 12.7216 16.1167 12.5816 16.84C12.4416 17.54 12.3716 18.1233 12.3716 18.59C12.3716 19.78 12.5816 20.6317 13.0016 21.145C13.4216 21.6583 14.1566 21.915 15.2066 21.915C16.4666 21.915 17.75 21.2267 19.0566 19.85C20.3866 18.45 21.5766 16.3383 22.6266 13.515C23.7 10.6917 24.47 7.23833 24.9366 3.155C25.0533 2.12833 25.3216 1.405 25.7416 0.984998C26.1616 0.541665 26.7683 0.319998 27.5616 0.319998C29.195 0.319998 30.0116 1.13666 30.0116 2.77C30.0116 3.05 30 3.27167 29.9766 3.435C29.4866 6.91167 29.0316 10.05 28.6116 12.85C28.3783 14.53 28.1216 16.2567 27.8416 18.03C27.585 19.8033 27.3283 21.6 27.0716 23.42C28.775 22.9533 30.5716 22.5333 32.4616 22.16ZM21.8566 28.46C16.21 30.42 13.3866 32.8 13.3866 35.6C13.3866 36.2533 13.585 36.79 13.9816 37.21C14.4016 37.6533 14.985 37.875 15.7316 37.875C18.975 37.875 21.005 34.8183 21.8216 28.705L21.8566 28.46ZM35.3262 30.175C34.2762 30.175 33.4128 29.6967 32.7362 28.74C32.0828 27.76 31.7562 26.5467 31.7562 25.1C31.7562 23.35 31.8728 21.7517 32.1062 20.305C32.3395 18.835 32.7245 17.2833 33.2612 15.65C33.4945 14.95 33.8212 14.4483 34.2412 14.145C34.6612 13.8417 35.3262 13.69 36.2362 13.69C36.7495 13.69 37.0995 13.7717 37.2862 13.935C37.4962 14.0983 37.6012 14.3433 37.6012 14.67C37.6012 14.8567 37.4728 15.4867 37.2162 16.56C36.9828 17.4233 36.7962 18.205 36.6562 18.905C36.1895 21.355 35.9562 22.9883 35.9562 23.805C35.9562 24.295 36.0145 24.645 36.1312 24.855C36.2478 25.0417 36.4345 25.135 36.6912 25.135C37.0412 25.135 37.4728 24.785 37.9862 24.085C38.5228 23.385 39.0828 22.3233 39.6662 20.9C40.2728 19.4767 40.8562 17.7267 41.4162 15.65C41.6028 14.95 41.8828 14.4483 42.2562 14.145C42.6528 13.8417 43.2362 13.69 44.0062 13.69C44.5428 13.69 44.9162 13.76 45.1262 13.9C45.3362 14.0167 45.4412 14.25 45.4412 14.6C45.4412 15.1833 45.1495 16.7817 44.5662 19.395C43.9128 22.3817 43.5862 24.225 43.5862 24.925C43.5862 25.3683 43.6795 25.7183 43.8662 25.975C44.0528 26.2083 44.2978 26.325 44.6012 26.325C45.0678 26.325 45.6162 26.045 46.2462 25.485C46.8995 24.9017 47.7628 23.9683 48.8362 22.685C49.1162 22.3583 49.4312 22.195 49.7812 22.195C50.0845 22.195 50.3178 22.335 50.4812 22.615C50.6678 22.895 50.7612 23.28 50.7612 23.77C50.7612 24.7033 50.5395 25.4267 50.0962 25.94C49.0928 27.1767 48.0078 28.1917 46.8412 28.985C45.6978 29.7783 44.3912 30.175 42.9212 30.175C41.8012 30.175 40.9728 29.7433 40.4362 28.88C39.9228 28.0167 39.6662 26.8033 39.6662 25.24C39.2695 26.8267 38.6745 28.0517 37.8812 28.915C37.0878 29.755 36.2362 30.175 35.3262 30.175ZM50.4082 30.175C49.5215 30.175 48.8915 29.7083 48.5182 28.775C48.1682 27.8417 47.9932 26.3483 47.9932 24.295C47.9932 21.2617 48.4248 18.38 49.2882 15.65C49.4982 14.9733 49.8365 14.4833 50.3032 14.18C50.7932 13.8533 51.4698 13.69 52.3332 13.69C52.7998 13.69 53.1265 13.7483 53.3132 13.865C53.4998 13.9817 53.5932 14.2033 53.5932 14.53C53.5932 14.9033 53.4182 15.7433 53.0682 17.05C52.8348 17.9833 52.6482 18.8 52.5082 19.5C52.3682 20.1767 52.2515 21.0283 52.1582 22.055C52.7882 20.235 53.5348 18.695 54.3982 17.435C55.2848 16.175 56.1832 15.2417 57.0932 14.635C58.0265 14.005 58.9015 13.69 59.7182 13.69C60.5348 13.69 61.1065 13.8767 61.4332 14.25C61.7832 14.6233 61.9582 15.195 61.9582 15.965C61.9582 16.7117 61.7365 18.065 61.2932 20.025C61.1065 20.865 60.9782 21.495 60.9082 21.915C62.0748 19.045 63.3698 16.9567 64.7932 15.65C66.2165 14.3433 67.5465 13.69 68.7832 13.69C70.2998 13.69 71.0582 14.4483 71.0582 15.965C71.0582 16.875 70.8015 18.52 70.2882 20.9C69.8448 22.93 69.6232 24.2717 69.6232 24.925C69.6232 25.8583 69.9615 26.325 70.6382 26.325C71.1048 26.325 71.6532 26.045 72.2832 25.485C72.9365 24.9017 73.7998 23.9683 74.8732 22.685C75.1532 22.3583 75.4682 22.195 75.8182 22.195C76.1215 22.195 76.3548 22.335 76.5182 22.615C76.7048 22.895 76.7982 23.28 76.7982 23.77C76.7982 24.7033 76.5765 25.4267 76.1332 25.94C75.1298 27.1767 74.0448 28.1917 72.8782 28.985C71.7348 29.7783 70.4282 30.175 68.9582 30.175C67.7682 30.175 66.8698 29.8367 66.2632 29.16C65.6565 28.46 65.3532 27.4567 65.3532 26.15C65.3532 25.4967 65.5165 24.33 65.8432 22.65C66.1465 21.18 66.2982 20.165 66.2982 19.605C66.2982 19.2317 66.1698 19.045 65.9132 19.045C65.6098 19.045 65.1782 19.4417 64.6182 20.235C64.0582 21.005 63.4982 22.0317 62.9382 23.315C62.3782 24.5983 61.9232 25.9517 61.5732 27.375C61.3165 28.495 61.0132 29.2417 60.6632 29.615C60.3365 29.9883 59.7998 30.175 59.0532 30.175C58.2832 30.175 57.6998 29.8133 57.3032 29.09C56.9298 28.3433 56.7432 27.445 56.7432 26.395C56.7432 25.5083 56.8598 24.225 57.0932 22.545C57.2798 21.0517 57.3732 20.0717 57.3732 19.605C57.3732 19.2317 57.2448 19.045 56.9882 19.045C56.6382 19.045 56.1948 19.465 55.6582 20.305C55.1215 21.145 54.5965 22.2183 54.0832 23.525C53.5932 24.8317 53.1965 26.115 52.8932 27.375C52.6365 28.4717 52.3332 29.2183 51.9832 29.615C51.6565 29.9883 51.1315 30.175 50.4082 30.175ZM90.7495 22.195C91.0528 22.195 91.2862 22.335 91.4495 22.615C91.6362 22.895 91.7295 23.28 91.7295 23.77C91.7295 24.6333 91.5078 25.3567 91.0645 25.94C89.9678 27.3633 88.6028 28.4833 86.9695 29.3C85.3595 30.1167 83.5395 30.525 81.5095 30.525C79.9228 30.525 78.5462 30.2917 77.3795 29.825C76.2128 29.335 75.3145 28.6817 74.6845 27.865C74.0778 27.025 73.7745 26.0917 73.7745 25.065C73.7745 23.525 74.3928 22.16 75.6295 20.97C76.8662 19.78 78.6395 18.6367 80.9495 17.54L75.2095 17.68C74.6962 17.7033 74.2995 17.5283 74.0195 17.155C73.7628 16.7583 73.6345 16.2917 73.6345 15.755C73.6345 15.195 73.7628 14.705 74.0195 14.285C74.2995 13.8417 74.6728 13.62 75.1395 13.62C76.2128 13.62 77.6478 13.7017 79.4445 13.865C79.8178 13.8883 80.4945 13.935 81.4745 14.005C82.4778 14.075 83.3178 14.11 83.9945 14.11C84.2278 14.11 84.6712 14.0167 85.3245 13.83C85.4412 13.8067 85.6628 13.7483 85.9895 13.655C86.3395 13.5617 86.6312 13.515 86.8645 13.515C87.2378 13.515 87.5412 13.6783 87.7745 14.005C88.0312 14.3317 88.1595 14.8333 88.1595 15.51C88.1595 16.2567 87.9845 16.84 87.6345 17.26C87.2845 17.68 86.7362 18.0533 85.9895 18.38C83.8662 19.29 82.1045 20.27 80.7045 21.32C79.3045 22.3467 78.6045 23.3733 78.6045 24.4C78.6045 25.0533 78.9078 25.59 79.5145 26.01C80.1212 26.43 81.0195 26.64 82.2095 26.64C83.5162 26.64 84.8345 26.3133 86.1645 25.66C87.5178 25.0067 88.7312 24.015 89.8045 22.685C90.0845 22.3583 90.3995 22.195 90.7495 22.195ZM93.4554 11.38C92.4754 11.38 91.7404 11.1583 91.2504 10.715C90.7604 10.2483 90.5154 9.60667 90.5154 8.79C90.5154 7.97333 90.8304 7.29667 91.4604 6.76C92.1138 6.2 92.9188 5.92 93.8754 5.92C94.7388 5.92 95.4388 6.13 95.9754 6.55C96.5121 6.97 96.7804 7.565 96.7804 8.335C96.7804 9.26833 96.4771 10.015 95.8704 10.575C95.2638 11.1117 94.4588 11.38 93.4554 11.38ZM93.1754 30.175C91.6588 30.175 90.5504 29.6383 89.8504 28.565C89.1738 27.4917 88.8354 26.0683 88.8354 24.295C88.8354 23.245 88.9638 21.9033 89.2204 20.27C89.5004 18.6133 89.8504 17.0733 90.2704 15.65C90.4804 14.9033 90.7604 14.39 91.1104 14.11C91.4604 13.83 92.0204 13.69 92.7904 13.69C93.9804 13.69 94.5754 14.0867 94.5754 14.88C94.5754 15.4633 94.3538 16.8167 93.9104 18.94C93.3504 21.5067 93.0704 23.245 93.0704 24.155C93.0704 24.855 93.1638 25.3917 93.3504 25.765C93.5371 26.1383 93.8521 26.325 94.2954 26.325C94.7154 26.325 95.2404 26.0333 95.8704 25.45C96.5004 24.8667 97.3404 23.945 98.3904 22.685C98.6704 22.3583 98.9854 22.195 99.3354 22.195C99.6388 22.195 99.8721 22.335 100.035 22.615C100.222 22.895 100.315 23.28 100.315 23.77C100.315 24.7033 100.094 25.4267 99.6504 25.94C97.3404 28.7633 95.1821 30.175 93.1754 30.175ZM113.094 22.195C113.397 22.195 113.63 22.335 113.794 22.615C113.98 22.895 114.074 23.28 114.074 23.77C114.074 24.7033 113.852 25.4267 113.409 25.94C112.545 26.99 111.32 27.9583 109.734 28.845C108.17 29.7317 106.49 30.175 104.694 30.175C102.244 30.175 100.342 29.51 98.9887 28.18C97.6354 26.85 96.9587 25.03 96.9587 22.72C96.9587 21.11 97.297 19.6167 97.9737 18.24C98.6504 16.84 99.5837 15.7317 100.774 14.915C101.987 14.0983 103.352 13.69 104.869 13.69C106.222 13.69 107.307 14.0983 108.124 14.915C108.94 15.7083 109.349 16.7933 109.349 18.17C109.349 19.78 108.765 21.1683 107.599 22.335C106.455 23.4783 104.507 24.3883 101.754 25.065C102.337 26.1383 103.445 26.675 105.079 26.675C106.129 26.675 107.319 26.3133 108.649 25.59C110.002 24.8433 111.169 23.875 112.149 22.685C112.429 22.3583 112.744 22.195 113.094 22.195ZM104.274 17.12C103.41 17.12 102.675 17.6217 102.069 18.625C101.485 19.6283 101.194 20.8417 101.194 22.265V22.335C102.57 22.0083 103.655 21.5183 104.449 20.865C105.242 20.2117 105.639 19.4533 105.639 18.59C105.639 18.1467 105.51 17.7967 105.254 17.54C105.02 17.26 104.694 17.12 104.274 17.12ZM117.734 30.945C116.521 30.945 115.587 30.665 114.934 30.105C114.304 29.545 113.989 28.915 113.989 28.215C113.989 27.6083 114.211 27.0833 114.654 26.64C115.097 26.1967 115.751 25.975 116.614 25.975C116.917 25.975 117.267 26.01 117.664 26.08C118.084 26.1267 118.399 26.1617 118.609 26.185C118.586 25.5783 118.446 25.0067 118.189 24.47C117.956 23.9333 117.652 23.42 117.279 22.93C116.906 22.4167 116.556 21.9733 116.229 21.6C115.506 22.9767 114.782 24.12 114.059 25.03C113.359 25.94 112.589 26.8033 111.749 27.62C111.329 28.04 110.886 28.25 110.419 28.25C110.046 28.25 109.742 28.1217 109.509 27.865C109.276 27.585 109.159 27.2467 109.159 26.85C109.159 26.3833 109.322 25.9517 109.649 25.555L110.104 24.995C111.387 23.4083 112.356 22.1017 113.009 21.075C113.429 20.3983 113.849 19.5933 114.269 18.66C114.712 17.7267 115.284 16.455 115.984 14.845C116.427 13.8183 117.349 13.305 118.749 13.305C119.402 13.305 119.857 13.3633 120.114 13.48C120.371 13.5967 120.499 13.7833 120.499 14.04C120.499 14.18 120.452 14.4017 120.359 14.705C120.266 15.0083 120.137 15.3117 119.974 15.615C119.554 16.455 119.344 17.1667 119.344 17.75C119.344 18.1 119.461 18.485 119.694 18.905C119.951 19.325 120.336 19.85 120.849 20.48C121.596 21.46 122.156 22.3 122.529 23C122.926 23.6767 123.124 24.4233 123.124 25.24C123.124 26.22 122.891 27.1533 122.424 28.04C121.981 28.9033 121.351 29.6033 120.534 30.14C119.717 30.6767 118.784 30.945 117.734 30.945Z" fill="url(#paint0_linear_1736_309)"/>
<defs>
<linearGradient id="paint0_linear_1736_309" x1="-9" y1="20" x2="133" y2="20" gradientUnits="userSpaceOnUse">
<stop stop-color="#FA73B8"/>
<stop offset="1" stop-color="#EF1F7A"/>
</linearGradient>
</defs>
</svg>
